<?xml version="1.0" standalone="no"?>
<!DOCTYPE svg PUBLIC "-//W3C//DTD SVG 20010904//EN"
 "http://www.w3.org/TR/2001/REC-SVG-20010904/DTD/svg10.dtd">
<svg version="1.0" xmlns="http://www.w3.org/2000/svg"
 width="1280.000000pt" height="1280.000000pt" viewBox="0 0 1280.000000 1280.000000"
 preserveAspectRatio="xMidYMid meet">
<metadata>
Created by potrace 1.15, written by Peter Selinger 2001-2017
</metadata>
<g transform="translate(0.000000,1280.000000) scale(0.100000,-0.100000)"
fill="#000000" stroke="none">
<path d="M5995 12304 c-978 -75 -1821 -336 -2620 -812 -928 -553 -1708 -1382
-2204 -2342 -768 -1487 -858 -3247 -246 -4805 302 -768 742 -1434 1336 -2022
913 -903 2074 -1473 3334 -1638 439 -57 990 -63 1420 -14 503 56 968 170 1453
356 78 30 147 51 154 47 6 -4 8 -3 5 3 -3 5 29 25 71 43 42 18 126 58 186 87
59 30 115 52 123 49 8 -3 11 -1 8 4 -3 5 23 24 57 41 249 125 602 353 873 563
359 279 754 674 1031 1030 298 385 568 842 754 1276 151 352 266 713 344 1080
30 142 43 212 71 395 73 463 73 1197 0 1660 -28 183 -41 253 -71 395 -304
1428 -1145 2697 -2354 3552 -726 513 -1577 856 -2460 992 -323 50 -434 58
-835 61 -209 1 -402 1 -430 -1z m603 -3584 c1152 -123 2022 -1088 2022 -2245
0 -704 -337 -1383 -891 -1797 -149 -111 -235 -163 -399 -242 -308 -148 -615
-216 -970 -216 -179 0 -302 12 -465 47 -405 85 -789 287 -1089 574 -934 893
-934 2375 0 3268 351 336 831 560 1304 610 121 12 374 13 488 1z"/>
<path d="M6180 8534 c-14 -2 -65 -9 -115 -15 -114 -14 -323 -67 -441 -112
-257 -99 -487 -245 -688 -437 -181 -174 -307 -341 -421 -561 -34 -66 -63 -117
-66 -115 -2 2 -5 -5 -6 -17 -2 -30 -92 -286 -93 -267 -3 26 -29 -80 -51 -210
-39 -224 -28 -563 25 -780 8 -30 14 -46 15 -35 1 11 17 -29 36 -90 227 -739
821 -1286 1563 -1440 309 -65 662 -55 962 26 576 155 1070 566 1327 1106 181
380 243 820 173 1230 -119 699 -576 1279 -1227 1558 -262 113 -532 166 -823
164 -80 -1 -156 -3 -170 -5z m335 -1511 c91 -22 173 -70 251 -148 113 -113
164 -236 164 -400 0 -154 -47 -275 -149 -386 -109 -119 -247 -181 -411 -182
-204 -1 -380 94 -492 268 -113 174 -112 428 2 603 140 215 380 308 635 245z
m-2178 -105 c-3 -8 -6 -5 -6 6 -1 11 2 17 5 13 3 -3 4 -12 1 -19z m-30 -730
c-3 -8 -6 -5 -6 6 -1 11 2 17 5 13 3 -3 4 -12 1 -19z m10 -70 c-3 -7 -5 -2 -5
12 0 14 2 19 5 13 2 -7 2 -19 0 -25z m10 -50 c-3 -8 -6 -5 -6 6 -1 11 2 17 5
13 3 -3 4 -12 1 -19z m10 -50 c-3 -7 -5 -2 -5 12 0 14 2 19 5 13 2 -7 2 -19 0
-25z"/>
<path d="M4361 7074 c0 -11 3 -14 6 -6 3 7 2 16 -1 19 -3 4 -6 -2 -5 -13z"/>
<path d="M4341 5944 c0 -11 3 -14 6 -6 3 7 2 16 -1 19 -3 4 -6 -2 -5 -13z"/>
<path d="M4361 5874 c0 -11 3 -14 6 -6 3 7 2 16 -1 19 -3 4 -6 -2 -5 -13z"/>
</g>
</svg>
